<?xml version="1.0" encoding="UTF-8"?>
<svg width="64px" height="42px" viewBox="0 0 64 42" version="1.1" xmlns="http://www.w3.org/2000/svg" xmlns:xlink="http://www.w3.org/1999/xlink">
    <!-- Generator: Sketch 42 (36781) - http://www.bohemiancoding.com/sketch -->
    <title>xxxhdpi/delivery</title>
    <desc>Created with Sketch.</desc>
    <defs>
        <path d="M0,1.00041944 C0,0.447903039 0.44921875,0 1.00877516,0 L38.9912248,0 C39.548356,0 40,0.455173016 40,1.00041944 L40,36 L1.00877516,36 C0.451644023,36 0,35.544827 0,34.9995806 L0,1.00041944 Z" id="path-1"></path>
        <mask id="mask-2" maskContentUnits="userSpaceOnUse" maskUnits="objectBoundingBox" x="0" y="0" width="40" height="36" fill="white">
            <use xlink:href="#path-1"></use>
        </mask>
        <ellipse id="path-3" cx="10.6666667" cy="36" rx="5.33333333" ry="5.33333333"></ellipse>
        <mask id="mask-4" maskContentUnits="userSpaceOnUse" maskUnits="objectBoundingBox" x="0" y="0" width="10.6666667" height="10.6666667" fill="white">
            <use xlink:href="#path-3"></use>
        </mask>
        <path d="M38.6666667,8 L48.9267418,8 C49.4785759,8 50.2845682,8.27181307 50.7194845,8.60143383 L56.962963,13.3333333 L63.2064415,18.0652328 C63.6447117,18.3973956 64,19.1125521 64,19.6735009 L64,34.9931658 C64,35.549225 63.5602926,36 63.0069033,36 L38.6666667,36 L38.6666667,8 Z" id="path-5"></path>
        <mask id="mask-6" maskContentUnits="userSpaceOnUse" maskUnits="objectBoundingBox" x="0" y="0" width="25.3333333" height="28" fill="white">
            <use xlink:href="#path-5"></use>
        </mask>
        <ellipse id="path-7" cx="50.6666667" cy="36" rx="5.33333333" ry="5.33333333"></ellipse>
        <mask id="mask-8" maskContentUnits="userSpaceOnUse" maskUnits="objectBoundingBox" x="0" y="0" width="10.6666667" height="10.6666667" fill="white">
            <use xlink:href="#path-7"></use>
        </mask>
        <rect id="path-9" x="9.85499039" y="17.9690193" width="8.76142375" height="1.33333333" rx="0.666666667"></rect>
        <mask id="mask-10" maskContentUnits="userSpaceOnUse" maskUnits="objectBoundingBox" x="0" y="0" width="8.76142375" height="1.33333333" fill="white">
            <use xlink:href="#path-9"></use>
        </mask>
    </defs>
    <g id="Page-1" stroke="none" stroke-width="1" fill="none" fill-rule="evenodd">
        <g id="3.0-home" transform="translate(-906.000000, -283.000000)">
            <g id="delivery" transform="translate(906.000000, 283.000000)">
                <g id="Group-5">
                    <g id="Group-4">
                        <g id="Group-3" stroke="#000000" stroke-width="2" fill="#FFFFFF">
                            <use id="Combined-Shape" mask="url(#mask-2)" xlink:href="#path-1"></use>
                            <use id="Oval-4" mask="url(#mask-4)" xlink:href="#path-3"></use>
                            <use id="Combined-Shape" mask="url(#mask-6)" xlink:href="#path-5"></use>
                            <use id="Oval-4" mask="url(#mask-8)" xlink:href="#path-7"></use>
                        </g>
                        <rect id="Rectangle-6" fill="#000000" transform="translate(23.071068, 15.071068) rotate(-45.000000) translate(-23.071068, -15.071068) " x="13.7377345" y="14.4044011" width="18.6666667" height="1.33333333" rx="0.666666667"></rect>
                        <use id="Rectangle-6" stroke="#000000" mask="url(#mask-10)" stroke-width="2" transform="translate(14.235702, 18.635686) scale(-1, 1) rotate(-45.000000) translate(-14.235702, -18.635686) " xlink:href="#path-9"></use>
                    </g>
                </g>
            </g>
        </g>
    </g>
</svg>