<?xml version="1.0" encoding="UTF-8"?>
<svg width="24px" height="32px" viewBox="0 0 24 32" version="1.1" xmlns="http://www.w3.org/2000/svg" xmlns:xlink="http://www.w3.org/1999/xlink">
    <!-- Generator: Sketch 42 (36781) - http://www.bohemiancoding.com/sketch -->
    <title>xxxhdpi/office</title>
    <desc>Created with Sketch.</desc>
    <defs></defs>
    <g id="Page-1" stroke="none" stroke-width="1" fill="none" fill-rule="evenodd" opacity="0.44">
        <g id="3.0-home" transform="translate(-760.000000, -1013.000000)">
            <g id="office" transform="translate(755.000000, 1013.000000)">
                <g id="-office">
                    <rect id="cont" fill="#181818" opacity="0" x="0" y="0" width="32" height="32"></rect>
                    <polygon id="Path" stroke="#000000" stroke-linecap="round" stroke-linejoin="round" points="27.6363636 31.2727273 27.6363636 1.45454545 5.81818182 1.45454545 5.81818182 31.2727273"></polygon>
                    <path d="M22.5454545,31.2727273 L22.5454545,27.8787879 C22.5454545,26.5399158 21.4058157,25.4545455 20,25.4545455 C18.5941843,25.4545455 17.4545455,26.5399158 17.4545455,27.8787879 L17.4545455,31.2727273" id="Oval-46" stroke="#000000"></path>
                    <path d="M10.5454545,5.09090909 L10.5454545,8" id="Path-216-Copy" stroke="#000000"></path>
                    <path d="M16.3636364,5.09090909 L16.3636364,8" id="Path-216-Copy" stroke="#000000"></path>
                    <path d="M22.9090909,5.09090909 L22.9090909,8" id="Path-216-Copy" stroke="#000000"></path>
                    <path d="M10.5454545,11.6363636 L10.5454545,14.5454545" id="Path-216-Copy" stroke="#000000"></path>
                    <path d="M16.3636364,11.6363636 L16.3636364,14.5454545" id="Path-216-Copy" stroke="#000000"></path>
                    <path d="M22.9090909,11.6363636 L22.9090909,14.5454545" id="Path-216-Copy" stroke="#000000"></path>
                    <path d="M10.5454545,18.1818182 L10.5454545,21.0909091" id="Path-216-Copy" stroke="#000000"></path>
                    <path d="M10.5454545,24.7272727 L10.5454545,27.6363636" id="Path-216-Copy" stroke="#000000"></path>
                    <path d="M16.3636364,18.1818182 L16.3636364,21.0909091" id="Path-216-Copy" stroke="#000000"></path>
                    <path d="M22.9090909,18.1818182 L22.9090909,21.0909091" id="Path-216-Copy" stroke="#000000"></path>
                </g>
            </g>
        </g>
    </g>
</svg>