<?xml version="1.0" encoding="UTF-8"?>
<svg width="26px" height="26px" viewBox="0 0 26 26" version="1.1" xmlns="http://www.w3.org/2000/svg" xmlns:xlink="http://www.w3.org/1999/xlink">
    <!-- Generator: Sketch 42 (36781) - http://www.bohemiancoding.com/sketch -->
    <title>xxxhdpi/phone</title>
    <desc>Created with Sketch.</desc>
    <defs>
        <path d="M10.976893,5.6164014 C12.7758187,1.61687951 15.3527322,1.10955524 15.3527322,1.10955524 C15.865027,0.917553181 16.736885,0.761904762 17.2722608,0.761904762 L17.6266553,0.761904762 C20.3892187,0.761904762 22.6287188,3.00084888 22.6287188,5.76400354 L22.6287188,7.10030158 C22.6287188,8.76214873 21.2799816,10.0225198 19.6331147,9.91650611 L19.9331134,9.93581791 C18.278687,9.82931758 16.8875681,11.0913978 16.8265172,12.7397722 L16.5899927,19.1259337 C16.5286934,20.7810152 17.8133977,22.1539996 19.4817985,22.1931038 L19.6259207,22.1964817 C21.2843203,22.2353515 22.6287188,23.609946 22.6287188,25.2666253 L22.6287188,26.2409529 C22.6287188,29.0007984 20.3875533,31.2380952 17.627728,31.2380952 L17.4725105,31.2380952 C16.9183767,31.2380952 16.0431611,31.1003478 15.5355505,30.8981781 C15.5355505,30.8981781 12.7692056,30.2814217 10.976893,26.7078134 C9.18458037,23.1342051 9.14285714,16.6305175 9.14285714,16.6305175 C9.14285714,16.6305175 9.17796727,9.61592329 10.976893,5.6164014 Z" id="path-1"></path>
        <mask id="mask-2" maskContentUnits="userSpaceOnUse" maskUnits="objectBoundingBox" x="0" y="0" width="13.4858616" height="30.4761905" fill="white">
            <use xlink:href="#path-1"></use>
        </mask>
    </defs>
    <g id="Page-1" stroke="none" stroke-width="1" fill="none" fill-rule="evenodd" opacity="0.44">
        <g id="3.0-home" transform="translate(-759.000000, -1057.000000)">
            <g id="phone" transform="translate(755.000000, 1055.000000)">
                <g>
                    <use id="Rectangle-7" stroke="#000000" mask="url(#mask-2)" stroke-width="2" transform="translate(15.885788, 16.000000) rotate(-45.000000) translate(-15.885788, -16.000000) " xlink:href="#path-1"></use>
                    <rect id="Rectangle" x="0.761904762" y="0.761904762" width="30.4761905" height="30.4761905"></rect>
                </g>
            </g>
        </g>
    </g>
</svg>