<svg xmlns="http://www.w3.org/2000/svg" width="28" height="28" viewBox="0 0 28 28">
    <g fill="none" fill-rule="evenodd">
        <path d="M4 4h20v20H4z"/>
        <path fill="#424242" d="M21.224 20.37l.015-.015L14.884 14l6.432-6.433a.624.624 0 0 0-.441-1.067.624.624 0 0 0-.442.184L14 13.116 7.568 6.684a.624.624 0 1 0-.884.882L13.116 14l-6.432 6.432a.624.624 0 0 0 .441 1.068c.173 0 .329-.07.443-.184L14 14.884l6.355 6.355.015-.015a.615.615 0 0 0 .505.276c.345 0 .625-.28.625-.625a.614.614 0 0 0-.276-.505"/>
        <path d="M0 0h28v28H0z"/>
    </g>
</svg>
